<?xml version="1.0" standalone="no"?>
<!DOCTYPE svg PUBLIC "-//W3C//DTD SVG 20010904//EN"
 "http://www.w3.org/TR/2001/REC-SVG-20010904/DTD/svg10.dtd">
<svg version="1.0" xmlns="http://www.w3.org/2000/svg"
 width="260.000000pt" height="260.000000pt" viewBox="0 0 260.000000 260.000000"
 preserveAspectRatio="xMidYMid meet">
<metadata>
Created by potrace 1.11, written by Peter Selinger 2001-2013
</metadata>
<g transform="translate(0.000000,260.000000) scale(0.100000,-0.100000)"
fill="#000000" stroke="none">
<path d="M194 2548 c-87 -92 -155 -207 -176 -296 -6 -26 -13 -108 -15 -182 -4
-136 5 -201 34 -248 13 -21 12 -28 -11 -69 -36 -63 -33 -112 4 -68 19 23 40
18 40 -10 0 -14 -4 -25 -9 -25 -12 0 -61 -51 -61 -63 0 -6 8 -3 18 6 26 23 30
22 47 -19 32 -76 193 -243 290 -300 48 -28 80 -56 102 -89 31 -44 48 -49 21
-5 -16 26 -3 39 50 51 36 8 46 6 78 -16 45 -31 60 -31 75 -2 6 12 49 60 94
107 45 47 94 107 110 133 15 26 39 54 54 61 29 16 81 64 81 77 0 4 -11 21 -25
37 -29 35 -33 86 -9 120 9 13 38 44 65 69 45 42 52 55 81 150 32 103 32 104
60 98 21 -5 28 -3 28 9 0 9 -4 16 -9 16 -4 0 -29 27 -56 61 -45 57 -48 59 -65
44 -20 -18 -40 -13 -40 9 0 20 58 42 73 27 6 -6 24 -11 40 -11 16 0 26 -4 22
-10 -4 -6 -10 -8 -15 -5 -22 13 -21 -20 1 -39 13 -12 32 -34 42 -49 27 -42 40
-24 33 47 -15 132 -59 212 -150 270 -41 26 -55 42 -64 73 -13 44 -46 81 -57
64 -10 -17 -22 -13 -28 9 -5 19 -15 19 -354 20 l-350 0 -49 -52z m803 -13 c9
-24 -1 -27 -15 -5 -8 13 -8 20 -2 20 6 0 13 -7 17 -15z m-48 -309 c-9 -8 -10
-7 -5 7 3 10 7 24 7 30 1 7 3 4 6 -7 3 -10 -1 -23 -8 -30z m228 28 c-3 -3 -12
-4 -19 -1 -8 3 -5 6 6 6 11 1 17 -2 13 -5z m-357 -41 c1 -39 37 -116 52 -111
7 3 14 13 16 24 7 49 13 64 26 64 8 0 17 -15 20 -34 4 -19 14 -37 22 -40 13
-5 15 -1 12 18 -9 47 9 51 31 8 22 -43 84 -98 99 -88 5 3 7 29 5 58 l-4 53 21
-25 c13 -14 20 -32 17 -45 -3 -11 -12 -53 -21 -94 -22 -96 -45 -140 -99 -184
-74 -61 -97 -139 -56 -191 26 -33 20 -50 -26 -77 -20 -12 -50 -46 -70 -80 -20
-32 -64 -88 -98 -125 -34 -36 -66 -73 -71 -83 -5 -9 -18 -23 -29 -33 -20 -15
-23 -15 -66 15 -29 19 -46 26 -49 19 -2 -7 -13 -12 -25 -12 -11 0 -35 -5 -54
-12 -28 -10 -35 -9 -45 3 -7 9 -45 37 -85 63 -77 50 -150 124 -159 163 -6 23
20 93 34 93 4 0 15 -14 24 -30 16 -29 45 -43 35 -17 -17 47 -18 57 -2 57 14 0
15 7 10 44 -5 32 -2 52 10 76 16 30 16 36 2 59 -8 14 -18 56 -22 92 -9 80 10
129 49 129 14 0 26 4 28 9 5 14 68 0 68 -15 0 -7 -4 -16 -10 -19 -15 -9 -12
-25 5 -25 8 0 15 7 15 15 0 8 5 15 10 15 6 0 10 -9 10 -21 0 -12 5 -19 12 -17
15 5 29 56 17 64 -16 9 -10 37 13 61 12 13 16 23 10 23 -7 0 -12 5 -12 10 0 6
4 10 9 10 15 0 24 -41 12 -53 -16 -16 -14 -44 4 -50 21 -9 62 45 82 109 15 49
19 54 30 38 12 -17 14 -17 27 2 20 26 32 10 17 -22 -16 -37 -7 -40 18 -7 74
95 115 143 122 143 5 0 9 -12 9 -27z m258 -81 c4 -26 -22 -31 -32 -6 -10 26
-7 36 12 32 9 -2 18 -13 20 -26z m-498 -66 c0 -3 -4 -8 -10 -11 -5 -3 -10 -1
-10 4 0 6 5 11 10 11 6 0 10 -2 10 -4z m-239 -42 c6 -18 3 -21 -25 -22 -30 -1
-33 1 -28 24 6 31 41 30 53 -2z m-81 -78 c0 -3 -4 -8 -10 -11 -5 -3 -10 -1
-10 4 0 6 5 11 10 11 6 0 10 -2 10 -4z m-210 -48 c0 -32 -3 -39 -10 -28 -13
20 -13 70 0 70 6 0 10 -19 10 -42z m74 -358 c-7 -6 -24 22 -23 40 0 9 6 5 14
-10 7 -14 11 -27 9 -30z m36 -21 c0 -11 -4 -17 -10 -14 -5 3 -10 13 -10 21 0
8 5 14 10 14 6 0 10 -9 10 -21z"/>
<path d="M855 2010 c-7 -12 4 -18 61 -30 33 -7 56 -20 71 -37 12 -15 25 -24
29 -20 12 12 -16 52 -49 72 -33 20 -103 29 -112 15z"/>
<path d="M798 1929 c-30 -17 -21 -30 16 -23 50 9 60 -2 34 -36 -18 -25 -20
-33 -10 -55 21 -46 83 -20 98 41 14 55 -82 106 -138 73z"/>
<path d="M625 1520 c-14 -43 47 -90 116 -90 43 0 35 13 -19 30 -36 12 -50 23
-62 47 -17 38 -26 41 -35 13z"/>
<path d="M2185 2216 c-33 -14 -91 -76 -116 -123 -14 -26 -25 -32 -70 -39 -30
-4 -82 -6 -116 -5 -72 3 -87 -4 -165 -72 -31 -27 -61 -46 -67 -43 -5 3 -27
-14 -49 -39 -29 -33 -47 -67 -65 -128 -59 -190 -74 -289 -52 -341 12 -28 15
-81 15 -243 -1 -252 14 -337 81 -464 l23 -44 6 45 c8 69 18 76 46 38 13 -18
31 -48 41 -65 9 -18 19 -33 22 -33 14 0 4 167 -12 202 -14 30 -15 38 -4 38 8
0 22 -9 32 -20 10 -11 23 -20 30 -20 6 0 29 -19 51 -42 69 -75 68 -73 45 -105
-26 -34 -39 -126 -22 -147 21 -25 -3 -88 -40 -110 -31 -18 -33 -18 -46 -1 -7
11 -13 24 -13 30 0 21 35 44 57 39 11 -3 23 -1 27 4 10 16 -25 23 -59 12 -34
-11 -59 -55 -83 -142 -6 -20 -22 -52 -36 -71 -14 -19 -26 -45 -26 -58 0 -14
-4 -29 -9 -35 -5 -5 -28 -60 -50 -121 -29 -82 -36 -113 -26 -113 8 0 26 37 45
90 18 49 37 87 41 84 14 -8 10 -78 -6 -117 -21 -51 -19 -57 17 -57 l31 0 -6
129 c-4 71 -10 136 -13 145 -4 9 12 34 42 66 57 61 91 81 119 69 42 -16 64
-10 81 24 27 51 76 107 94 107 36 0 70 -73 70 -153 0 -31 7 -45 40 -77 23 -22
45 -40 49 -40 5 0 14 -20 21 -44 11 -41 10 -75 -6 -188 l-6 -38 212 0 212 0
-6 27 c-14 73 -17 230 -5 273 14 52 18 167 5 193 -6 13 -4 17 13 17 l21 0 -3
623 c-2 537 -5 630 -19 682 -9 33 -22 92 -28 130 -20 113 -45 160 -117 220
-65 54 -97 65 -178 64 -22 0 -53 -6 -70 -13z m59 -155 c3 -5 15 -7 26 -4 20 5
50 -12 50 -29 0 -18 -31 -20 -50 -3 -11 10 -26 15 -34 12 -10 -4 -20 2 -26 13
-9 17 -7 20 9 20 11 0 22 -4 25 -9z m-642 -259 c-33 -84 -52 -113 -52 -79 0
46 71 189 86 174 1 -1 -14 -44 -34 -95z m786 5 c11 -12 28 -39 37 -60 18 -43
40 -48 49 -12 10 40 24 29 31 -22 3 -27 8 -58 11 -70 6 -32 -14 -38 -26 -8 -9
23 -13 25 -25 15 -8 -7 -15 -29 -15 -50 0 -21 -6 -52 -14 -70 l-13 -32 -17 23
c-9 13 -16 36 -16 52 0 15 -7 41 -15 57 -12 23 -13 34 -3 55 11 24 4 78 -17
128 -10 24 7 21 33 -6z m-518 -52 c0 -24 -5 -35 -15 -35 -16 0 -18 12 -9 48
10 34 24 26 24 -13z m444 -74 c-9 -35 -13 -38 -25 -21 -15 24 -22 59 -14 77
11 30 47 -21 39 -56z m-632 -303 c-3 -29 1 -39 19 -52 38 -26 59 -20 77 24 9
22 20 40 24 40 4 0 16 -14 28 -31 26 -36 35 -33 20 7 -13 33 -53 71 -89 85
-17 7 -21 13 -13 21 6 6 16 7 24 2 7 -5 39 -9 71 -11 35 -1 69 -9 84 -19 22
-14 27 -14 34 -2 7 13 15 13 56 3 32 -9 47 -17 44 -26 -18 -63 -3 -111 40
-124 40 -13 94 69 59 90 -15 9 -12 35 4 35 18 0 53 -48 57 -79 2 -14 10 -26
18 -29 10 -3 12 3 9 24 -3 16 -9 37 -13 47 -5 11 -3 17 6 17 16 0 49 -30 49
-45 0 -6 6 -17 13 -24 6 -6 13 -26 14 -44 15 -317 18 -417 13 -439 -10 -53
-207 -158 -296 -158 -17 0 -37 -7 -44 -15 -15 -18 -36 -20 -45 -4 -4 6 2 13
14 16 12 3 21 9 21 13 0 4 15 10 34 13 58 9 336 177 294 177 -9 0 -26 -8 -39
-19 -13 -10 -40 -23 -59 -30 -19 -7 -53 -23 -75 -37 -22 -13 -60 -33 -85 -45
-25 -11 -55 -25 -67 -31 -33 -16 -74 5 -116 62 -20 27 -62 68 -92 90 -87 64
-122 104 -133 152 -6 24 -16 61 -21 83 -6 22 -12 80 -12 128 0 49 -4 112 -9
140 -9 60 -5 76 23 86 30 11 65 -42 59 -91z m68 19 c0 -8 -9 -22 -20 -32 -18
-16 -20 -16 -26 -1 -7 19 12 46 32 46 8 0 14 -6 14 -13z m358 -16 c5 -29 -15
-52 -27 -33 -11 18 -1 64 13 59 6 -2 13 -14 14 -26z"/>
<path d="M1850 1163 c0 -5 4 -15 10 -23 11 -18 25 -7 17 15 -6 15 -27 21 -27
8z"/>
<path d="M1725 1050 c-3 -5 -4 -14 -1 -19 8 -13 97 -42 107 -35 19 11 7 24
-33 35 -24 6 -48 15 -55 20 -7 7 -14 6 -18 -1z"/>
<path d="M2065 1024 c-11 -8 -37 -19 -57 -25 -51 -13 -39 -32 16 -24 49 8 86
30 86 50 0 19 -19 19 -45 -1z"/>
<path d="M1870 901 c0 -12 37 -24 50 -16 20 12 10 25 -20 25 -16 0 -30 -4 -30
-9z"/>
<path d="M0 1142 c0 -12 36 -54 87 -102 70 -66 108 -92 191 -132 107 -53 129
-75 110 -112 -6 -10 -7 -33 -3 -50 38 -181 66 -407 66 -528 0 -54 4 -98 8 -98
20 0 25 193 8 300 -23 143 -54 310 -62 338 -9 26 2 28 40 8 56 -29 99 -241 86
-416 -5 -58 -7 -136 -6 -173 l2 -68 -38 -17 c-22 -9 -39 -20 -39 -24 0 -12 6
-10 45 12 54 30 67 26 93 -30 13 -28 30 -50 38 -50 12 0 10 10 -11 49 -31 57
-27 86 13 103 15 7 46 29 69 51 22 22 46 36 51 33 6 -4 18 -32 27 -64 27 -93
57 -172 66 -172 5 0 9 5 9 11 0 19 -72 243 -83 256 -28 37 71 325 143 414 27
34 37 39 71 39 51 0 71 -11 139 -74 30 -29 69 -58 87 -65 17 -7 35 -20 38 -29
14 -33 33 -127 28 -132 -3 -3 -8 0 -10 7 -2 7 -13 23 -24 37 -18 23 -28 26
-79 26 l-58 0 -25 -44 c-16 -29 -26 -66 -30 -112 -20 -237 -24 -257 -63 -292
-39 -37 -38 -51 3 -36 34 12 73 77 73 124 0 19 4 51 9 70 6 19 12 74 14 121 7
137 39 166 87 78 33 -61 103 -148 144 -179 18 -14 47 -42 66 -63 32 -37 33
-38 23 -97 -9 -53 -8 -60 7 -60 13 0 20 15 29 57 6 31 11 62 11 69 0 7 -34 47
-75 89 -41 42 -75 79 -75 83 0 3 7 13 16 23 14 16 13 24 -11 96 -14 43 -31 94
-37 113 -14 45 -24 57 -73 88 -22 14 -46 33 -53 43 -7 10 -33 33 -59 50 -46
32 -102 42 -149 25 -15 -6 -33 2 -72 33 -28 23 -56 41 -61 41 -6 0 -15 -19
-21 -42 -6 -24 -13 -49 -15 -56 -3 -6 -11 -54 -20 -105 -22 -129 -84 -377
-102 -405 -9 -15 -20 -21 -32 -17 -12 4 -21 -2 -29 -20 -26 -57 -33 -14 -26
171 7 191 -1 280 -33 373 -12 33 -14 65 -10 131 6 81 5 88 -19 124 -22 32 -24
42 -15 63 6 13 11 38 10 56 0 23 -6 12 -21 -43 -40 -150 -58 -178 -100 -150
-13 7 -62 33 -110 57 -68 34 -105 62 -172 129 -62 61 -86 80 -86 66z m483
-265 c-1 -31 -6 -64 -11 -73 -8 -14 -11 -14 -31 7 -24 26 -28 59 -7 59 15 0
26 21 26 52 0 11 5 18 13 15 8 -3 11 -23 10 -60z m372 -137 c29 -30 29 -31 12
-58 -49 -76 -126 -297 -127 -364 0 -31 -49 -95 -50 -66 0 10 6 35 14 55 17 47
52 205 66 297 18 117 31 166 44 166 7 0 25 -14 41 -30z"/>
<path d="M0 943 c0 -5 36 -47 80 -92 59 -62 80 -78 80 -63 0 11 -12 31 -27 45
-16 13 -52 46 -80 72 -29 26 -53 43 -53 38z"/>
<path d="M50 780 c0 -5 8 -10 18 -10 10 0 23 -5 30 -12 6 -6 14 -9 18 -6 3 4
-8 14 -25 22 -35 19 -41 19 -41 6z"/>
<path d="M172 655 c0 -16 2 -22 5 -12 2 9 2 23 0 30 -3 6 -5 -1 -5 -18z"/>
<path d="M162 540 c-7 -47 -22 -148 -33 -225 -18 -127 -38 -233 -55 -292 -3
-13 -2 -23 3 -23 16 0 50 142 67 275 34 262 38 301 34 325 -2 14 -9 -13 -16
-60z"/>
</g>
</svg>
